# xmcd
#
# Track frame offsets:
#	150
#	11189
#	34025
#	48457
#	64632
#	81981
#	98484
#	121606
#	126298
#	144865
#	155738
#	170737
#	190686
#	209668
#	215129
#	230021
#	248069
#
# Disc length: 3411 seconds
#
# Revision: 0
# Processed by: cddbd v1.5.1PL2 Copyright (c) Steve Scherf et al.
# Submitted via: audiograbber 1.83.01
#
DISCID=f20d5111
DTITLE=Tenky - Royality
DYEAR=2005
DGENRE=Hip-hop
TTITLE0=Tenky - Intro
TTITLE1=Tenky ft. Emprio Elitario e Duastin - Lo stigma delle angoscie
TTITLE2=Tenky ft. Mefisto - Mappamondo dei luoghi comuni
TTITLE3=Tenky ft. NTD MC - Tecnologia Viva
TTITLE4=Tenky ft. Emporio Elitario - Carta verde
TTITLE5=Tenky ft. Shake - L'ideale
TTITLE6=Tenky ft. Duastin - Omistrasui
TTITLE7=Tenky - Skito1
TTITLE8=Tenky ft. Isma Killah - Favole in loop
TTITLE9=Tenky ft. Lil Pin - Old school
TTITLE10=Tenky ft. Matta - Riti Voodoo
TTITLE11=Tenky ft. Zidio - Indomiti paladini(scratches di Zidio)
TTITLE12=Tenky ft. Bion - Andrenalina a 100
TTITLE13=Tenky - Skito2
TTITLE14=Tenky ft. Sirtaki - Sezione paccottiglia
TTITLE15=Tenky ft. Infa - Anche se andasse bene(non durera per molto)
TTITLE16=Tenky - Outro
EXTD=
EXTT0=
EXTT1=
EXTT2=
EXTT3=
EXTT4=
EXTT5=
EXTT6=
EXTT7=
EXTT8=
EXTT9=
EXTT10=
EXTT11=
EXTT12=
EXTT13=
EXTT14=
EXTT15=
EXTT16=
PLAYORDER=
